<?xml version="1.0" standalone="no"?>
<!DOCTYPE svg PUBLIC "-//W3C//DTD SVG 20010904//EN"
 "http://www.w3.org/TR/2001/REC-SVG-20010904/DTD/svg10.dtd">
<svg version="1.0" xmlns="http://www.w3.org/2000/svg"
 width="192.000000pt" height="192.000000pt" viewBox="0 0 192.000000 192.000000"
 preserveAspectRatio="xMidYMid meet">
<metadata>
Created by potrace 1.11, written by Peter Selinger 2001-2013
</metadata>
<g transform="translate(0.000000,192.000000) scale(0.100000,-0.100000)"
fill="#000000" stroke="none">
<path d="M0 960 l0 -960 960 0 960 0 0 960 0 960 -960 0 -960 0 0 -960z m479
501 c12 -8 13 -37 8 -165 -3 -85 -2 -158 2 -160 5 -3 16 3 26 14 51 56 190 66
262 18 21 -14 47 -41 57 -59 10 -19 14 -29 8 -24 -7 6 -34 8 -64 5 -44 -4 -59
-1 -88 18 -29 20 -45 23 -92 20 -32 -2 -65 -11 -75 -20 -11 -9 -41 -16 -73
-17 -30 -1 -58 -8 -62 -14 -4 -7 -9 62 -10 153 l-3 165 -40 5 c-32 4 -41 10
-43 27 -3 19 3 22 45 28 26 3 55 8 63 9 31 7 65 5 79 -3z m669 0 c11 -7 12
-41 7 -175 -4 -91 -4 -166 -1 -166 4 0 24 12 45 26 99 65 240 71 289 12 14
-18 35 -81 24 -74 -4 2 -30 5 -57 7 -29 1 -60 10 -74 21 -31 23 -97 23 -158 0
-27 -10 -73 -19 -103 -21 -30 -1 -58 -8 -62 -14 -4 -7 -9 62 -10 153 l-3 165
-40 5 c-32 4 -41 10 -43 27 -3 19 3 22 45 28 26 3 55 8 63 9 30 7 65 5 78 -3z"/>
</g>
</svg>
